<svg id="Layer_1" data-name="Layer 1" xmlns="http://www.w3.org/2000/svg" viewBox="0 0 691.49 342.35"><defs><style>.cls-1{fill:#777;}.cls-2{fill:#febc12;}</style></defs><path class="cls-1" d="M170.44,353.55V279q0-24.2-24.78-24.2H98.13v98.78H50.3v-142h96.51q35.28,0,53.23,17.65T218,279.25v74.3Z" transform="translate(-50.3 -60.74)"/><rect class="cls-1" x="193.87" y="150.75" width="47.54" height="142.06"/><path class="cls-1" d="M319.89,353.55V206.37q0-25.05,13.1-38.57t38.71-13.53h53.53v37.58h-41q-8.53,0-12.81,4.56t-4.27,15.09h58.93v39.28H367.15V353.55Z" transform="translate(-50.3 -60.74)"/><path class="cls-1" d="M494.4,353.55q-25.9,0-38.86-13.52t-13-38.57V171.07h47.26V211.5h56.93v39.28H489.85v47q0,16.81,16.79,16.8h38.72v39Z" transform="translate(-50.3 -60.74)"/><path class="cls-1" d="M590.62,403.09v-41h15.09q9.1,0,14.23-3.7a29.11,29.11,0,0,0,8.26-9.11L559.87,211.5H608l42.14,91.1,43.27-91.1h48.4l-78.86,156a105.87,105.87,0,0,1-9.54,15.8,49.84,49.84,0,0,1-11.24,11.1,44.68,44.68,0,0,1-14.1,6.55A68.64,68.64,0,0,1,610,403.09Z" transform="translate(-50.3 -60.74)"/><polygon class="cls-2" points="221.69 0 188.1 85.13 221.69 78.66 215.51 136.86 256.38 53.06 224.83 58.49 221.69 0"/></svg>